<svg version="1.2" xmlns="http://www.w3.org/2000/svg" viewBox="0 0 500 120" width="500" height="120">
	<title>Logo-svg</title>
	<style>
		.s0 { fill: #000000 } 
	</style>
	<path id="Layer" class="s0" d="m344.2 52.9q0 5.8 0.1 11.8c0 2.5 1.9 4.6 4.5 2.9q1.1-0.7 1.5 0.6l2.3 7.4q0.5 1.5-1.1 2c-10 3.5-18.7 0.8-19.2-11q-0.3-5.8 0-13.9 0-0.1-0.1-0.2 0 0-0.1-0.1 0-0.1-0.1-0.1-0.1-0.1-0.2-0.1h-2.3q-0.4 0-0.4 0.5 0.2 6.4-0.2 13c-0.5 7.2-5 11.6-12 12.8-8 1.3-20.1 1.1-24-7.1q-1.9-3.9-1.8-10.6 0.2-9.2 0.1-17.2-0.1-0.6 0.6-0.6h10.9q0.1 0 0.2 0 0.1 0.1 0.2 0.2 0.1 0 0.1 0.1 0.1 0.1 0.1 0.2-0.1 9.4 0 18.1c0.1 3 1.1 6.6 4.6 7.3 7.6 1.5 9.2-3.4 9.2-9.5q-0.1-8.3-0.1-15.9 0-0.5 0.5-0.5h14.2q0.1 0 0.2 0 0.1-0.1 0.1-0.1 0.1-0.1 0.1-0.2 0.1-0.1 0.1-0.2v-12q0-0.5 0.5-0.5h11q0.6 0 0.6 0.5l-0.1 12q0 0.5 0.5 0.5h5.9q1 0 1 0.9v6.9q0 1.8-1.8 1.5-2.2-0.3-5 0-0.6 0-0.6 0.6z"/>
	<path id="Layer" class="s0" d="m134.4 54.1c-4.1 3.7-3.5 10.6 1.1 13.6q4.4 2.9 10.2 0 0.2-0.1 0.3 0.1l3.9 7.9q0.1 0.3-0.2 0.4-5.1 2.7-10.1 2.8-14.2 0.4-19.7-12.5c-4.4-10.1 3.9-22.2 14.5-24q8.2-1.5 15.4 2.6 0.2 0.1 0.1 0.3l-3.9 7.9q-0.1 0.2-0.4 0.1-6.5-3.3-11.2 0.8z"/>
	<path id="Layer" fill-rule="evenodd" class="s0" d="m186.3 68.6q-5.3 9.1-16.1 10.2-10.4 1.1-17.3-4.1c-6.2-4.8-8.3-12.9-5.8-20.2 2.1-6.2 8.1-10.6 14.5-11.9 9.6-2 19.7 1 24.5 9.9q0.3 0.5 0.6 0 7.5-12.3 21.7-10.2 4.1 0.6 7.3 2.7 0 0.1 0.1 0.1 0 0.1 0 0.1 0.1 0.1 0.1 0.2 0 0-0.1 0.1l-3.8 7.7q-0.2 0.3-0.5 0.1c-5.4-3.2-12.2-1-13.6 5.5-1 4.1 1.5 8.7 5.6 9.9q4 1.2 8.1-1 0.3-0.2 0.4 0.1l3.9 7.9q0.1 0.3-0.1 0.4c-10.6 5.5-23 3.2-28.9-7.5q-0.3-0.6-0.6 0zm-11-8.1q0-1.6-0.6-3.1-0.7-1.6-1.8-2.7-1.2-1.2-2.7-1.8-1.5-0.6-3.1-0.6-1.7 0-3.2 0.6-1.5 0.6-2.7 1.8-1.1 1.1-1.8 2.7-0.6 1.5-0.6 3.1 0 1.7 0.6 3.2 0.7 1.5 1.8 2.7 1.2 1.1 2.7 1.7 1.5 0.7 3.2 0.7 1.6 0 3.1-0.7 1.5-0.6 2.7-1.7 1.1-1.2 1.8-2.7 0.6-1.5 0.6-3.2z"/>
	<path id="Layer" fill-rule="evenodd" class="s0" d="m252.9 66.4c-4.3 10.9-16.5 14.7-27 11.7q-13.9-4-14.1-18.2 0-5 3.1-9.5c9.3-12.9 31.9-11 38 4.4q0.2 0.5 0.2-0.1v-11q0-0.7 0.7-0.7h10.7q0.8 0 0.7 0.7v2.3q-0.1 0.9 0.6 0.2 8-7.6 19.1-1.6 5.7 3 5.8 10.7 0 11.3 0 22 0 0.7-0.6 0.7h-10.9q-0.6 0-0.6-0.6 0-9 0-18.6c0.1-10.5-13.4-8.9-13.4-0.4q0 10.2 0 19 0 0.6-0.6 0.6h-10.8q-0.7 0-0.7-0.7v-10.9q0-0.6-0.2 0zm-11.8-5.9q-0.1-1.6-0.7-3.1-0.6-1.6-1.8-2.7-1.1-1.2-2.6-1.8-1.6-0.6-3.2-0.6-1.6 0-3.2 0.6-1.5 0.6-2.6 1.8-1.2 1.1-1.8 2.7-0.6 1.5-0.6 3.1 0 1.7 0.6 3.2 0.6 1.5 1.8 2.7 1.1 1.1 2.6 1.7 1.6 0.7 3.2 0.7 1.6 0 3.2-0.7 1.5-0.6 2.6-1.7 1.2-1.2 1.8-2.7 0.6-1.5 0.7-3.2z"/>
	<path id="Layer" class="s0" d="m370.7 79c-4.4 0-7.8-3.5-7.8-7.8 0-4.3 3.4-7.8 7.8-7.8 4.3 0 7.8 3.5 7.8 7.8 0 4.3-3.5 7.8-7.8 7.8z"/>
</svg>